<svg xmlns="http://www.w3.org/2000/svg" viewBox="0 0 1200 630">
  <defs>
    <linearGradient id="brand-gradient" x1="3" y1="16" x2="29" y2="16" gradientUnits="userSpaceOnUse">
      <stop offset="0" stop-color="#7e41ed" />
      <stop offset="0.5" stop-color="#3678e6" />
      <stop offset="1" stop-color="#cd69c6" />
    </linearGradient>
    <style>
      .brand-title { font-family: "Paperlogy", sans-serif; font-weight: 700; }
      .brand-tagline { font-family: Arial, sans-serif; font-weight: 400; }
    </style>
  </defs>
  <rect width="1200" height="630" fill="#ffffff" />
  <g transform="translate(552 182) scale(3)" fill="url(#brand-gradient)" shape-rendering="crispEdges">
    <path d="M4,13c-0.6,0-1,0.4-1,1v4c0,0.6,0.4,1,1,1s1-0.4,1-1v-4C5,13.4,4.6,13,4,13z" />
    <path d="M8,11c-0.6,0-1,0.4-1,1v8c0,0.6,0.4,1,1,1s1-0.4,1-1v-8C9,11.4,8.6,11,8,11z" />
    <path d="M12,6c-0.6,0-1,0.4-1,1v18c0,0.6,0.4,1,1,1s1-0.4,1-1V7C13,6.4,12.6,6,12,6z" />
    <path d="M16,13c-0.6,0-1,0.4-1,1v4c0,0.6,0.4,1,1,1s1-0.4,1-1v-4C17,13.4,16.6,13,16,13z" />
    <path d="M20,9c-0.6,0-1,0.4-1,1v12c0,0.6,0.4,1,1,1s1-0.4,1-1V10C21,9.4,20.6,9,20,9z" />
    <path d="M24,6c-0.6,0-1,0.4-1,1v18c0,0.6,0.4,1,1,1s1-0.4,1-1V7C25,6.4,24.6,6,24,6z" />
    <path d="M28,13c-0.6,0-1,0.4-1,1v4c0,0.6,0.4,1,1,1s1-0.4,1-1v-4C29,13.4,28.6,13,28,13z" />
  </g>
  <text class="brand-title" x="600" y="350" fill="#17181b" font-size="72" text-anchor="middle">Copysinger</text>
  <text class="brand-tagline" x="600" y="410" fill="#5b606a" font-size="28" text-anchor="middle">Find your voice. Sing your Match</text>
</svg>
